<?xml version="1.0" encoding="UTF-8" standalone="no"?>
<!-- Created with Inkscape (http://www.inkscape.org/) -->

<svg
   xmlns:dc="http://purl.org/dc/elements/1.1/"
   xmlns:cc="http://creativecommons.org/ns#"
   xmlns:rdf="http://www.w3.org/1999/02/22-rdf-syntax-ns#"
   xmlns:svg="http://www.w3.org/2000/svg"
   xmlns="http://www.w3.org/2000/svg"
   xmlns:sodipodi="http://sodipodi.sourceforge.net/DTD/sodipodi-0.dtd"
   xmlns:inkscape="http://www.inkscape.org/namespaces/inkscape"
   width="734.45111"
   height="734.41986"
   id="svg2"
   version="1.1"
   inkscape:version="0.48.4 r9939"
   sodipodi:docname="Tenkaichi Budokai.svg">
  <defs
     id="defs4" />
  <sodipodi:namedview
     id="base"
     pagecolor="#ffffff"
     bordercolor="#666666"
     borderopacity="1.0"
     inkscape:pageopacity="0.0"
     inkscape:pageshadow="2"
     inkscape:zoom="0.7"
     inkscape:cx="313.5455"
     inkscape:cy="392.45389"
     inkscape:document-units="px"
     inkscape:current-layer="layer2"
     showgrid="false"
     fit-margin-top="1"
     fit-margin-left="1"
     fit-margin-right="1"
     fit-margin-bottom="1"
     inkscape:window-width="1280"
     inkscape:window-height="962"
     inkscape:window-x="-8"
     inkscape:window-y="-8"
     inkscape:window-maximized="1" />
  <metadata
     id="metadata7">
    <rdf:RDF>
      <cc:Work
         rdf:about="">
        <dc:format>image/svg+xml</dc:format>
        <dc:type
           rdf:resource="http://purl.org/dc/dcmitype/StillImage" />
        <dc:title></dc:title>
      </cc:Work>
    </rdf:RDF>
  </metadata>
  <g
     inkscape:groupmode="layer"
     id="layer2"
     inkscape:label="logo"
     transform="translate(-26.772233,-155.71477)">
    <g
       id="g3783">
      <path
         inkscape:connector-curvature="0"
         id="path2997"
         transform="translate(-237.14285,20.362183)"
         d="m 631.15625,136.875 c -201.96604,0 -365.71875,163.72146 -365.71875,365.6875 0,201.96604 163.75271,365.6875 365.71875,365.6875 201.96604,0 365.6875,-163.72146 365.6875,-365.6875 0,-201.96604 -163.72146,-365.6875 -365.6875,-365.6875 z m 0,38.5625 c 180.67601,0 327.125,146.44899 327.125,327.125 0,180.67601 -146.44899,327.15625 -327.125,327.15625 C 450.48024,829.71875 304,683.23851 304,502.5625 304,321.88649 450.48024,175.4375 631.15625,175.4375 z"
         style="fill:#000000;fill-opacity:1;stroke:#000000;stroke-width:1.0448339px;stroke-linecap:butt;stroke-linejoin:miter;stroke-opacity:1" />
      <path
         sodipodi:nodetypes="sccccccccccccccccccccccccccccccccccccccscccccscccccccccsscccccs"
         inkscape:connector-curvature="0"
         id="path3767"
         transform="translate(-237.14285,20.362183)"
         d="m 621.375,243.59375 c -25.76702,0.42455 -40.89702,12.29784 -54.21875,26.125 12.94226,19.58005 36.35693,31.78359 60.6875,37.125 20.10188,14.64858 27.55807,33.53769 33.59375,52.875 C 620.13472,375.40387 578.20219,388.29974 535,395.4375 486.81709,399.12151 443.13506,384.75738 398.5625,374 c 0.57945,28.09349 1.95159,56.13823 40.71875,81.4375 29.04762,9.91909 58.10863,9.0735 87.15625,2.84375 -5.85301,5.74741 -4.48368,13.91119 -5,21.4375 12.03285,9.75467 23.39031,20.0443 30.71875,33.5625 -3.09299,36.27059 -11.21632,70.86589 -22.875,104.28125 -1.28121,14.92291 -1.29934,29.6182 2.15625,43.59375 -9.89164,4.65926 -19.31818,9.9222 -32.875,10 -2.55396,-8.80952 -2.36661,-17.62798 -2.125,-26.4375 7.43035,-14.03115 8.20198,-30.28932 7.125,-47.15625 -2.23146,-11.42857 -5.18507,-22.85268 -12.125,-34.28125 8.26961,-10.61117 14.31859,-21.77303 15,-34.28125 -8.40794,-25.68372 -19.93564,-49.62524 -68.59375,-52.84375 -4.01008,1.02745 -8.0559,1.96558 -9.28125,8.5625 -1.93393,15.23809 -2.31471,30.48066 1.4375,45.71875 15.90322,47.25693 26.31072,94.64533 6.4375,142.84375 L 415,697.5625 c -0.59758,15.8152 -8.34752,32.195 2.15625,47.15625 14.43661,15.98058 33.79238,14.19507 52.84375,13.5625 L 473.5625,749 c 72.50645,-32.87931 140.98602,-72.43272 240,-61.4375 l 8.59375,-7.125 c 31.15549,36.19325 60.04289,78.79974 111.40625,57.125 9.33092,-10.47921 12.49672,-28.65031 14.28125,-48.5625 -0.20351,-46.85945 -16.87906,-92.61005 -30.6875,-138.5625 1.76943,30.30635 1.18546,59.87449 -9.3125,86.40625 -75.28777,-14.36703 -51.10084,-133.64558 -63.5625,-214.28125 30.36074,-6.13032 55.34813,1.60897 74.28125,25 9.04762,-3.80467 18.10863,-11.67617 27.15625,-25 2.77952,-7.16324 2.08061,-77.34634 -22.15625,-84.28125 l -11.40625,7.875 c 0.57257,-43.27532 -19.89619,-71.715 -67.875,-80.71875 -21.63152,2.50397 -42.39771,7.95621 -62.125,17.125 -20.12781,-7.06152 -25.884,-23.25199 -36.4375,-36.40625 -9.07291,-1.8822 -17.12899,-2.68137 -24.34375,-2.5625 z m 70.0625,54.6875 c 16.32007,1.85683 32.21197,5.08214 46.0625,15 5.38322,19.15201 14.08705,35.16288 29.28125,46.0625 -12.96999,3.90879 -25.99165,6.70508 -39.625,0 -8.4332,-21.69236 -18.60591,-42.70846 -35.71875,-61.0625 z M 665.5,429.5625 c 4.21492,0.0205 8.45213,0.18659 12.71875,0.5 8.15683,31.7093 5.63226,59.48254 6.78125,88.59375 -6.14618,-8.74918 -12.21812,-18.68666 -20,-22.5 -3.8125,-1.19486 -7.625,-1.20054 -11.4375,-0.71875 -4.07986,1.13067 -7.00234,10.58461 -10,12.5 l -36.78125,15.71875 c -3.67189,-5.48037 -7.40383,-16.37375 -7.5,-21.8125 8.81508,-5.10165 9.94162,-14.59629 8.5625,-21.0625 -1.58692,-6.00393 -14.4015,-21.27348 -27.5,-32.5 27.36822,-11.96199 55.65181,-18.86198 85.15625,-18.71875 z m -2.96875,131.5 c 6.12072,0.0809 12.49804,0.96287 19.25,2.9375 4.20987,25.75326 13.32682,50.5144 22.15625,75.34375 -10.61208,-9.23519 -23.39323,-24.81139 -32.875,-24.625 -6.64542,0.0724 -48.45105,31.35801 -77.125,29.28125 -0.6651,-23.75906 -0.48631,-47.27074 8.21875,-68.21875 20.01463,-5.24629 38.5153,-15.00767 60.375,-14.71875 z"
         style="fill:#000000;fill-opacity:1;stroke:#000000;stroke-width:1px;stroke-linecap:butt;stroke-linejoin:round;stroke-opacity:1" />
      <path
         sodipodi:nodetypes="ccccccc"
         transform="translate(-237.14285,20.362183)"
         inkscape:connector-curvature="0"
         id="path3775"
         d="m 421.07143,315.78571 c 31.73402,5.15676 64.31988,-8.7659 96.78571,-20 18.22196,0.29944 35.83921,3.0177 51.22635,14.65646 17.92455,8.15051 35.8491,9.90425 53.77365,8.55783 8.44706,31.73971 -9.66108,38.75561 -28.21428,45.35714 -43.43197,-21.61052 -88.24405,-10.78859 -133.57143,12.14286 -35.11965,-7.98329 -33.68424,-36.52881 -40,-60.71429 z"
         style="fill:#000000;fill-opacity:1;stroke:#000000;stroke-width:1px;stroke-linecap:butt;stroke-linejoin:miter;stroke-opacity:1" />
    </g>
  </g>
</svg>
